<svg width="97" height="98" xmlns="http://www.w3.org/2000/svg" xmlns:xlink="http://www.w3.org/1999/xlink" xml:space="preserve" overflow="hidden"><g transform="translate(-289 -582)"><g><g><g><g><path d="M339.44 671 339.44 662.33C339.475 660.956 338.823 659.654 337.7 658.86 335.201 656.92 332.306 655.555 329.22 654.86 326.904 654.165 324.507 653.778 322.09 653.71 319.684 653.704 317.292 654.076 315 654.81 311.958 655.628 309.086 656.983 306.52 658.81 305.436 659.635 304.797 660.917 304.79 662.28L304.79 671Z" fill="#04164C" fill-rule="nonzero" fill-opacity="1"/><path d="M330.76 642.67C330.76 647.458 326.878 651.34 322.09 651.34 317.302 651.34 313.42 647.458 313.42 642.67 313.42 637.882 317.302 634 322.09 634 326.878 634 330.76 637.882 330.76 642.67Z" fill="#04164C" fill-rule="nonzero" fill-opacity="1"/><path d="M369.27 592 328.17 592C326.832 592.011 325.754 593.102 325.76 594.44L325.76 626.56C325.743 627.891 326.809 628.983 328.14 629 328.143 629 328.147 629 328.15 629L335.75 629 335.75 639.09 344.92 629 369.22 629C370.557 628.995 371.635 627.907 371.63 626.57 371.63 626.567 371.63 626.563 371.63 626.56L371.68 594.47C371.708 593.134 370.647 592.028 369.31 592 369.297 592 369.284 592 369.27 592ZM355.27 601.39 356.82 599.84C357.091 599.622 357.488 599.666 357.706 599.938 357.888 600.166 357.89 600.49 357.71 600.72L356.16 602.27C356.043 602.386 355.885 602.451 355.72 602.45 355.553 602.449 355.392 602.385 355.27 602.27 355.065 602.023 355.077 601.661 355.3 601.43ZM348.1 596.59C348.056 596.245 348.301 595.93 348.646 595.886 348.991 595.842 349.306 596.086 349.35 596.432 349.357 596.484 349.357 596.537 349.35 596.59L349.35 598.77C349.394 599.115 349.149 599.43 348.804 599.474 348.459 599.518 348.144 599.274 348.1 598.928 348.093 598.876 348.093 598.823 348.1 598.77ZM339.76 599.72C339.993 599.477 340.38 599.469 340.622 599.703 340.628 599.708 340.634 599.714 340.64 599.72L342.19 601.27C342.429 601.515 342.429 601.905 342.19 602.15 342.073 602.266 341.915 602.331 341.75 602.33 341.583 602.329 341.422 602.265 341.3 602.15L339.76 600.6C339.545 600.357 339.558 599.987 339.79 599.76ZM339 609 336.85 609C336.505 608.956 336.26 608.641 336.304 608.296 336.34 608.011 336.565 607.786 336.85 607.75L339 607.75C339.345 607.706 339.66 607.951 339.704 608.296 339.748 608.641 339.504 608.956 339.158 609 339.106 609.007 339.053 609.007 339 609ZM342.18 615.4 340.63 616.95C340.356 617.164 339.96 617.116 339.746 616.842 339.565 616.612 339.567 616.288 339.75 616.06L341.29 614.52C341.561 614.302 341.958 614.346 342.176 614.618 342.358 614.846 342.36 615.17 342.18 615.4ZM348.7 622.5C347.666 622.505 346.798 621.72 346.7 620.69L350.61 620.69C350.516 621.686 349.7 622.459 348.7 622.5ZM351.14 619.44 346.25 619.44C345.753 619.44 345.35 619.037 345.35 618.54 345.35 618.043 345.753 617.64 346.25 617.64L351.14 617.64C351.637 617.64 352.04 618.043 352.04 618.54 352.04 619.037 351.637 619.44 351.14 619.44ZM352.33 616.33C352.314 616.366 352.279 616.389 352.24 616.39L345.15 616.39C345.121 616.402 345.089 616.402 345.06 616.39 344.555 615.286 343.917 614.249 343.16 613.3 342.619 612.691 342.192 611.99 341.9 611.23 341.584 610.426 341.408 609.573 341.38 608.71L341.38 608.4C341.529 604.36 344.926 601.206 348.966 601.355 352.796 601.497 355.868 604.57 356.01 608.4L356.01 608.66C355.982 609.526 355.809 610.381 355.5 611.19 355.203 611.948 354.777 612.648 354.24 613.26 353.483 614.204 352.842 615.234 352.33 616.33ZM357.74 616.81C357.623 616.926 357.465 616.991 357.3 616.99 357.133 616.989 356.972 616.925 356.85 616.81L355.3 615.26C355.086 614.986 355.134 614.59 355.408 614.376 355.638 614.195 355.962 614.197 356.19 614.38L357.74 615.92C357.98 616.168 357.98 616.562 357.74 616.81ZM360.54 609 358.36 609C358.015 609.044 357.699 608.799 357.656 608.454 357.612 608.109 357.856 607.794 358.202 607.75 358.254 607.743 358.307 607.743 358.36 607.75L360.54 607.75C360.885 607.706 361.201 607.951 361.244 608.296 361.288 608.641 361.044 608.956 360.698 609 360.646 609.007 360.593 609.007 360.54 609Z" fill="#04164C" fill-rule="nonzero" fill-opacity="1"/></g></g></g></g></g></svg>
