<svg width="96" height="98" xmlns="http://www.w3.org/2000/svg" xmlns:xlink="http://www.w3.org/1999/xlink" xml:space="preserve" overflow="hidden"><g transform="translate(-36 -582)"><g><g><g><g><path d="M109.9 585 109.9 585C110.6 587.6 112.5 589.8 115 591 112.5 592.2 110.7 594.4 109.9 597 109.2 594.4 107.3 592.2 104.8 591 107.3 589.8 109.2 587.6 109.9 585Z" fill="#04164C" fill-rule="nonzero" fill-opacity="1"/><path d="M45.9 607 45.9 607C46.6 609.6 48.5 611.8 51 613 48.5 614.2 46.7 616.4 45.9 619 45.2 616.4 43.3 614.2 40.8 613 43.3 611.8 45.2 609.6 45.9 607Z" fill="#04164C" fill-rule="nonzero" fill-opacity="1"/><path d="M55.8 587 55.8 587C56.4 589.2 58 591 60 592 57.9 593 56.4 594.8 55.8 597 55.2 594.8 53.6 593 51.6 592 53.6 591 55.2 589.2 55.8 587Z" fill="#04164C" fill-rule="nonzero" fill-opacity="1"/><path d="M121.8 603 121.8 603C122.4 605.2 124 607 126 608 123.9 609 122.4 610.8 121.8 613 121.2 610.8 119.6 609 117.6 608 119.6 607 121.2 605.2 121.8 603Z" fill="#04164C" fill-rule="nonzero" fill-opacity="1"/><path d="M84 622.5C83.2 622.5 82.5 621.8 82.5 621L82.5 611C82.5 610.2 83.2 609.5 84 609.5 84.8 609.5 85.5 610.2 85.5 611L85.5 621C85.5 621.8 84.8 622.5 84 622.5Z" fill="#04164C" fill-rule="nonzero" fill-opacity="1"/><path d="M84 606.5C83.2 606.5 82.5 605.8 82.5 605L82.5 597C82.5 596.2 83.2 595.5 84 595.5 84.8 595.5 85.5 596.2 85.5 597L85.5 605C85.5 605.8 84.8 606.5 84 606.5Z" fill="#04164C" fill-rule="nonzero" fill-opacity="1"/><path d="M84 592.5C83.2 592.5 82.5 591.8 82.5 591L82.5 587C82.5 586.2 83.2 585.5 84 585.5 84.8 585.5 85.5 586.2 85.5 587L85.5 591C85.5 591.8 84.8 592.5 84 592.5Z" fill="#04164C" fill-rule="nonzero" fill-opacity="1"/><path d="M95 615.5C94.9 615.5 94.8 615.5 94.7 615.5 93.9 615.3 93.4 614.5 93.6 613.7L95.3 605.9C95.5 605.1 96.3 604.6 97.1 604.8 97.9 605 98.4 605.8 98.2 606.6L96.5 614.4C96.3 615 95.7 615.5 95 615.5Z" fill="#04164C" fill-rule="nonzero" fill-opacity="1"/><path d="M98 601.8C97.9 601.8 97.8 601.8 97.7 601.8 96.9 601.6 96.4 600.8 96.6 600L96.6 600 97.9 594.1C98.1 593.3 98.8 592.8 99.7 592.9 100.5 593.1 101 593.8 100.9 594.7 100.9 594.7 100.9 594.7 100.9 594.8L99.6 600.7C99.3 601.3 98.7 601.8 98 601.8Z" fill="#04164C" fill-rule="nonzero" fill-opacity="1"/><path d="M105 613.5C104.2 613.5 103.5 612.8 103.5 612 103.5 611.7 103.6 611.4 103.8 611.1L110.6 601.2C111.1 600.5 112 600.4 112.7 600.9 113.3 601.4 113.5 602.2 113.1 602.9L106.3 612.8C106 613.3 105.5 613.5 105 613.5Z" fill="#04164C" fill-rule="nonzero" fill-opacity="1"/><path d="M73 615.5C72.3 615.5 71.7 615 71.5 614.3L69.4 604.5C69.2 603.7 69.8 602.9 70.6 602.7 71.4 602.5 72.2 603 72.3 603.8L74.4 613.6C74.6 614.4 74.1 615.2 73.3 615.4 73.2 615.5 73.1 615.5 73 615.5Z" fill="#04164C" fill-rule="nonzero" fill-opacity="1"/><path d="M69.6 599.9C68.9 599.9 68.3 599.4 68.1 598.7L67.3 594.8C67.1 594 67.6 593.2 68.4 593 69.2 592.8 70 593.3 70.2 594.1 70.2 594.1 70.2 594.1 70.2 594.2L71 598.1C71.2 598.9 70.7 599.7 69.9 599.9 69.8 599.9 69.7 599.9 69.6 599.9Z" fill="#04164C" fill-rule="nonzero" fill-opacity="1"/><path d="M63 613.5C62.5 613.5 62 613.3 61.8 612.9L55 603C54.6 602.3 54.8 601.4 55.5 600.9 56.2 600.5 57 600.6 57.5 601.3L64.3 611.2C64.8 611.9 64.6 612.8 63.9 613.3 63.6 613.4 63.3 613.5 63 613.5Z" fill="#04164C" fill-rule="nonzero" fill-opacity="1"/><path d="M127.8 664.9 124.8 632.5C124.7 631.5 123.8 630.7 122.8 630.7 122.4 630.7 121.8 630.7 121.3 630.7L120.8 624.9 119 624.8C117.5 624.7 116 624.8 114.6 624.9L114.1 619.5 112.6 619.2C102.1 617.9 91.6 621.4 84 628.8 76.4 621.4 65.9 617.9 55.4 619.2L53.9 619.5 53.4 624.9C51.9 624.8 50.5 624.7 49 624.8L47.3 624.9 46.8 630.7C46.2 630.7 45.7 630.7 45.3 630.7 44.3 630.7 43.4 631.5 43.3 632.5L40.3 664.9C40.1 666 40.9 667 42 667.1 42.1 667.1 42.2 667.1 42.3 667.1 48.4 666.9 65.5 667.3 79.4 676.4 80.1 676.8 80.8 677.1 81.6 677.1L86.6 677.1C87.4 677.1 88.1 676.9 88.7 676.5 103.3 667.4 119.9 667 125.8 667.2 126.9 667.2 127.8 666.4 127.9 665.3 127.8 665 127.8 665 127.8 664.9ZM86 632.4C92.4 625.8 101.3 622.4 110.4 622.9L113.1 653.9C108.4 654.8 96.2 657.8 86 666.6L86 632.4ZM57.6 623C66.7 622.5 75.6 625.9 82 632.5L82 666.7C71.8 657.9 59.6 654.9 54.9 654L57.6 623ZM48 660 51 628.7C51.6 628.7 52.3 628.8 53.1 628.8L50.6 657.4 52.5 657.6C52.7 657.6 69.6 659.8 81.4 671.5 68.3 661.5 53.7 660.2 48 660ZM86.6 671.7C98.6 659.9 115.4 657.6 115.5 657.6L117.4 657.4 114.9 628.8C115.7 628.7 116.4 628.7 117 628.7L120 660C114.3 660.2 99.7 661.6 86.6 671.7Z" fill="#04164C" fill-rule="nonzero" fill-opacity="1"/></g></g></g></g></g></svg>
