<svg width="97" height="97" xmlns="http://www.w3.org/2000/svg" xmlns:xlink="http://www.w3.org/1999/xlink" xml:space="preserve" overflow="hidden"><g transform="translate(-152 -597)"><g><g><g><g><path d="M192.4 652.24C182.382 662.234 175.424 663.526 175.424 663.526 174.098 671.76 170.846 679.565 165.933 686.305L168.073 688.446 181.5 675.018C180.917 673.654 181.55 672.076 182.914 671.492 184.278 670.909 185.857 671.542 186.44 672.906 187.023 674.27 186.39 675.849 185.026 676.432 184.351 676.72 183.588 676.72 182.914 676.432L169.487 689.86 171.627 692C178.367 687.086 186.172 683.834 194.407 682.509 194.407 682.509 195.691 675.542 205.685 665.529Z" fill="#04164C" fill-rule="nonzero" fill-opacity="1"/><path d="M237 599.921C225.1 612.721 193.39 647.481 193.39 647.481L210.474 664.566C210.474 664.566 234.232 638.773 237 636.23Z" fill="#04164C" fill-rule="nonzero" fill-opacity="1"/></g></g></g></g></g></svg>
